<?xml version="1.0" encoding="UTF-8"?>
<svg width="48px" height="48px" viewBox="0 0 48 48" version="1.1" xmlns="http://www.w3.org/2000/svg" xmlns:xlink="http://www.w3.org/1999/xlink">
    <!-- Generator: Sketch 53 (72520) - https://sketchapp.com -->
    <title>chats</title>
    <desc>Created with Sketch.</desc>
    <g id="Page-1" stroke="none" stroke-width="1" fill="none" fill-rule="evenodd">
        <g id="chats" fill="#000000" fill-rule="nonzero">
            <path d="M33.8181818,24 L17.4545455,24 L15.2727273,24 L10.9090909,28.3636364 L6.54545455,32.7272727 L6.54545455,28.3636364 L6.54545455,24 L2.18181818,24 C0.977454545,24 0,23.0225455 0,21.8181818 L0,2.18181818 C0,0.977454545 0.977454545,0 2.18181818,0 L33.8181818,0 C35.0236364,0 36,0.977454545 36,2.18181818 L36,20.7272727 L36,21.8181818 C36,23.0225455 35.0236364,24 33.8181818,24 Z M31.0743802,20.7272727 C31.9876033,20.7272727 32.7272727,19.9778909 32.7272727,19.0545455 L32.7272727,5.02464489 C32.7272727,4.10129943 31.9876033,3.35191761 31.0743802,3.35191761 L4.92561983,3.35191761 C4.01322314,3.35191761 3.27272727,4.10129943 3.27272727,5.02464489 L3.27272727,19.0545455 C3.27272727,19.9778909 4.01322314,20.7272727 4.92561983,20.7272727 L9.81723485,20.7272727 L9.81723485,25.0942235 L14.2702415,20.7272727 L31.0743802,20.7272727 Z" id="Combined-Shape"></path>
            <path d="M45.8181818,20.7272727 L40.3636364,20.7272727 L40.3636364,21.8181818 C40.3636364,25.428 37.428,28.3636364 33.8181818,28.3636364 L17.4545455,28.3636364 L17.4545455,39.2727273 C17.4545455,40.4770909 18.432,41.4545455 19.6363636,41.4545455 L37.0909091,41.4545455 L43.6363636,48 L43.6363636,41.4545455 L45.8181818,41.4545455 C47.0236364,41.4545455 48,40.4770909 48,39.2727273 L48,22.9090909 C48,21.7047273 47.0236364,20.7272727 45.8181818,20.7272727 Z" id="Path"></path>
        </g>
    </g>
</svg>

